<svg xmlns="http://www.w3.org/2000/svg" width="1000" height="561.331"><path fill="#1f497d" d="M0 0h1000v561.33H0z"/><path fill="#c00000" d="M0 0v561.33L1000 0Z"/><path fill="#fac813" d="M442.469 430.483c-.57-.5-1.315-1.433-1.655-2.074-.794-1.5.09-3.282 2.964-5.982 1.759-1.651 2.43-1.949 4.397-1.949 1.764 0 2.493-.256 3.035-1.067.928-1.39 4.758-2.293 6.118-1.443.798.498 1.155.442 1.895-.298.501-.5 1.286-.791 1.743-.645 1.857.594 4.725 1.716 4.943 1.933.34.34-1.399 5.242-2.3 6.481-1.563 2.154-4.464 3.87-6.93 4.102-1.331.125-3.234.52-4.228.88-1.525.552-2.08.525-3.54-.172-1.618-.772-1.815-.762-2.998.147-1.582 1.216-2.14 1.23-3.444.087zm28.053-29.194c-.946-1.202-1.698-1.524-4.214-1.809-2.3-.26-3.362-.665-4.266-1.628-.704-.75-1.788-1.282-2.61-1.282-2.337 0-2.755-1.065-1.606-4.088 1.131-2.978 4.352-7.616 5.842-8.414.544-.29.989-.852.989-1.247 0-.395.27-.808.599-.917.57-.19 1.634-3.396 2.328-7.013.198-1.032-.002-2.474-.523-3.78-1.092-2.727-1.068-5.127.068-6.811.498-.74 1.684-2.494 2.635-3.898 1.654-2.445 1.714-2.702 1.4-6.033-.39-4.143.445-6.26 2.792-7.078 1.77-.617 2.792-2.154 2.137-3.213-.495-.802.473-3.045 1.783-4.133 1.273-1.056.981-1.76-1.306-3.154-2.803-1.709-3.298-2.688-2.487-4.929.52-1.438.513-2.03-.035-3.054-.38-.709-.575-2.152-.443-3.267.13-1.098-.061-2.715-.426-3.593-.503-1.212-.527-2.128-.101-3.806.475-1.871.427-2.344-.31-3.082-.766-.765-.932-.776-1.368-.091-.272.429-.395 1.052-.274 1.386.226.618-.786 1.213-2.065 1.213-.39 0-1.016-.64-1.391-1.423s-1.148-1.494-1.718-1.58c-2.636-.398-3.234-.695-3.77-1.87-.717-1.576-.333-3.229 1.247-5.358.675-.91 1.228-2.002 1.228-2.427 0-1.32 1.754-3.904 2.852-4.199.575-.154 1.73-.284 2.567-.288 1.071-.005 1.933-.5 2.912-1.672 1.369-1.64 1.422-1.655 3.585-1.007 2.733.82 5.036.373 5.407-1.046.438-1.673-.16-2.52-1.776-2.52-1.145 0-1.567-.292-1.808-1.25-.173-.688-.052-1.74.268-2.339.62-1.159-.04-3.167-1.043-3.167-1.237 0-1.687-2.525-1.015-5.692.789-3.717.3-4.703-2.332-4.703-1.314 0-2.18-.507-3.895-2.275-1.623-1.675-3.01-2.518-5.26-3.2-2.452-.742-3.26-1.273-4.097-2.692-.573-.972-1.043-2.222-1.043-2.777 0-.771-.361-1.01-1.526-1.01-1.085 0-2.069-.564-3.4-1.95l-1.871-1.948-1.15 1.348c-.631.742-1.54 1.489-2.02 1.659-.48.17-.948.967-1.04 1.77-.132 1.154-.44 1.467-1.467 1.495-.714.02-2.054.751-2.976 1.626-1.639 1.555-3.447 2.261-4.71 1.84-1.104-.368-.683-1.11 1.17-2.06 1.324-.68 1.68-1.118 1.345-1.66-.39-.629-.7-.617-2.144.083-1.917.929-3.279.656-2.925-.586.701-2.465.781-2.397-2.81-2.403-3.91-.006-5.141-.695-5.141-2.876 0-1.202.316-1.56 1.82-2.055 2.403-.794 2.594-2.533.238-2.187-1.034.151-1.924-.08-2.578-.672-.72-.652-1.474-.815-2.708-.584-4.775.894-5.37.906-6.387.135-.926-.7-.955-.874-.26-1.581.43-.437 1.717-1.118 2.86-1.514 2.009-.697 2.08-.8 2.136-3.147.035-1.437.403-2.806.903-3.359.465-.513.995-1.736 1.179-2.718.183-.982.985-2.487 1.782-3.344 1.691-1.82 1.85-2.437 1.303-5.074-.744-3.584.513-4.007 7.892-2.655 1.309.24 1.761.105 2.034-.604.422-1.102-1.032-2.322-2.766-2.322-.858 0-1.476-.561-2.217-2.013-1.29-2.53-.835-4.509 2.08-9.018 1.124-1.74 2.044-3.695 2.044-4.345 0-1.235 2.194-3.335 3.484-3.335.794 0 .51-1.735-.488-2.983-.283-.354-.361-1.462-.174-2.462.416-2.214-.21-3.545-2.881-6.12-1.637-1.578-2.41-1.949-4.062-1.949-1.123 0-2.392-.35-2.82-.78-.43-.428-1.287-.78-1.906-.78-.696 0-1.231-.404-1.403-1.062-.153-.585-1.17-1.519-2.262-2.075-2.176-1.11-2.396-.99-3.34 1.832-.286.854-.905 1.627-1.377 1.717-.668.129-.935-.406-1.214-2.432-.196-1.428-.204-3.078-.017-3.666.309-.973.125-1.07-2.035-1.07-2.17 0-2.374-.109-2.374-1.269 0-1.677-.726-2.05-3.732-1.912-2.47.113-2.505.092-2.505-1.47 0-1.034.261-1.586.75-1.586 1.046 0 1.519-.93 1.836-3.616.247-2.095.587-2.57 3.556-4.963 1.805-1.455 3.793-3.553 4.417-4.66 1.066-1.891 1.981-2.636 5.814-4.735.857-.47 2.26-1.499 3.118-2.288.893-.821 2.423-1.565 3.581-1.74 1.112-.168 2.983-.944 4.158-1.724 5.152-3.421 10.125-6.267 12.531-7.17 1.43-.536 3.344-1.756 4.253-2.71 1.015-1.066 2.157-1.737 2.955-1.737 2.883 0 5.66-1.992 6.664-4.78.277-.772 1.275-1.858 2.217-2.414 1.645-.97 8.08-9.511 8.08-10.724 0-.324.839-1.395 1.864-2.38 1.769-1.699 1.85-1.925 1.574-4.39-.16-1.43-.443-3.368-.628-4.308-.517-2.633.717-3.623 5.043-4.05 2.479-.244 3.581-.567 3.581-1.051 0-.385.706-1.064 1.568-1.51 1.513-.782 1.613-.761 2.87.594.715.772 1.8 1.657 2.408 1.966.61.31 1.358 1.03 1.664 1.602 1.929 3.612 2.99 4.87 4.36 5.17.875.193 1.854.956 2.392 1.866 1.017 1.722 1.35 1.803 3.782.923 1.542-.557 2.015-.457 4.918 1.04 3.185 1.642 7.743 2.312 7.743 1.136 0-1.014 2.975-.504 4.449.763 1.453 1.248 1.531 1.258 3.014.39.837-.491 2.214-1.748 3.059-2.794 1.892-2.34 1.66-4.353-.68-5.9-2.367-1.565-5.164-7.491-5.164-10.942 0-3.173.864-4.386 3.125-4.386.82 0 1.643-.246 1.83-.547a.83.83 0 0 1 .94-.331c.33.119 1.245-.109 2.031-.506 1.221-.616 1.637-.615 2.859.007.944.482 3.27.737 6.856.753 5.735.025 8.47-.773 10.001-2.919.376-.526 1.362-1.398 2.191-1.936 1.386-.9 3.95-5.548 3.95-7.16 0-.359.666-1.45 1.479-2.424l1.478-1.771 1.46 1.148c1.372 1.08 1.537 1.098 2.734.314.848-.556 1.835-.73 2.952-.52 1.447.271 1.762.13 2.286-1.02.344-.755.471-2.196.292-3.315-.249-1.557-.1-2.188.698-2.96 1.02-.985 2.344-7.436 2.23-10.856-.073-2.176.93-3.805 2.926-4.752 1.54-.731 2.007-.73 4.93.012 3.352.85 4.055 1.253 4.3 2.463.08.394.28 1.068.446 1.497.166.429.394 2.103.507 3.72.28 3.992 1.29 5.34 5.026 6.702 2.586.943 3.24 1.44 3.97 3.02.482 1.04 1.783 3.109 2.891 4.597 1.108 1.489 2.015 3.15 2.015 3.691 0 .542-.76 1.78-1.69 2.751-1.647 1.723-1.779 1.763-5.409 1.624-3.489-.134-3.788-.057-4.807 1.24-.598.76-1.088 1.645-1.088 1.966 0 .692-1.942 2.016-3.287 2.24-1.985.332-2.837 1.236-3.435 3.645-1.302 5.245-4.767 11.055-8.279 13.88-1.138.915-1.214 1.255-.915 4.107.29 2.776.548 3.317 2.403 5.03 2.734 2.524 2.864 4.963.44 8.259-1.587 2.159-1.619 2.306-1.039 4.82 1.606 6.954.208 9.73-6.504 12.919-3.33 1.582-5.502 3.084-8.199 5.668-2.018 1.934-4.953 4.515-6.521 5.736-1.57 1.22-3.139 2.628-3.488 3.127-.357.51-1.606 1.038-2.847 1.204-2.484.334-3.38 1.252-3.868 3.965-.435 2.42-.928 2.983-3.95 4.515-1.971.998-2.587 1.62-2.835 2.858-.402 2.008-1.759 2.541-6.467 2.541-4.088 0-5.472.554-8.982 3.592-1.3 1.126-2.835 2.196-3.41 2.378-.574.183-1.435 1.155-1.912 2.162-.478 1.006-1.468 2.058-2.201 2.337-2.458.934-2.697 1.387-1.763 3.345.788 1.651.786 1.91-.027 3.616-1.329 2.786-1.115 5.07.717 7.669 1.932 2.74 1.74 4.868-.481 5.36-2.662.589-3.191.801-3.191 1.281 0 .267.378.485.84.485.461 0 2.511.783 4.555 1.74 3.01 1.41 4.134 2.294 5.915 4.652 1.209 1.602 2.966 3.277 3.904 3.722.938.445 2.122 1.567 2.63 2.494.51.927 2.303 2.557 3.986 3.623 2.714 1.72 3.27 2.38 4.908 5.833 1.016 2.142 1.848 4.181 1.848 4.532s1.255 3.223 2.789 6.382c1.534 3.159 3.195 6.679 3.691 7.822 1.5 3.453 4.795 8.816 8.216 13.368 3.214 4.277 4.238 6.035 5.835 10.021.82 2.046 3.88 6.884 5.51 8.713 1.325 1.486 3.457 6.17 3.841 8.439.194 1.143.737 3.833 1.207 5.977 1.13 5.145 1.06 10.87-.182 14.962-.957 3.15-.96 3.36-.074 5.851l.918 2.585-1.323 1.734c-1.594 2.09-1.64 2.909-.285 5.131.745 1.223.952 2.213.736 3.52l-.302 1.82 1.381-1.69c.76-.928 1.75-1.688 2.199-1.688 1.319 0 .636 9.765-.823 11.775-.621.855-1.305 3.012-1.623 5.116-.402 2.658-.865 3.92-1.718 4.68-1.448 1.292-2.965 5.151-2.969 7.552-.005 1.845-1.489 3.781-4.818 6.275-.793.594-1.775 1.877-2.182 2.851-.883 2.114-1.369 2.188-3.085.472-1.797-1.797-5.043-1.808-6.827-.024-.702.702-1.276 1.609-1.276 2.016 0 .407-.371 1.047-.825 1.424-.818.679-.803 2.369.044 5 .502 1.56-1.74 3.798-3.803 3.798-.832 0-2.108.468-2.835 1.04-1.668 1.312-2.457 1.32-2.457.024 0-1.609-1.088-3.575-2.485-4.49-1.229-.805-1.334-.784-2.389.492-.773.936-1.704 1.38-3.117 1.485-1.77.132-2.085.361-2.599 1.895-.434 1.297-1.052 1.908-2.403 2.378-1 .347-2.73 1.257-3.841 2.022-2.243 1.544-4.079 1.73-6.035.612-2.357-1.348-3.604-.964-6.305 1.944-1.392 1.498-2.53 2.896-2.53 3.106 0 .21-.58.763-1.288 1.227-1.02.668-1.953.767-4.468.475l-3.179-.369.193-2.022c.152-1.589.015-2.023-.64-2.023-.913 0-2.623 1.682-3.562 3.503-.899 1.742-3.47 2.867-5.965 2.61-1.85-.191-2.406.014-4.092 1.51-1.073.953-2.515 1.733-3.206 1.733-.69 0-1.566.104-1.947.232-.38.128-1.21-.426-1.844-1.23zm150.777-117.22c-.62-1.619 1.223-2.443 2.921-1.307.675.452.644.625-.229 1.292-1.28.976-2.32.982-2.692.015zm-12.89-2.983c-.727-1.039-.708-1.278.222-2.729.836-1.304 1.346-1.58 2.838-1.531 3.912.125 4.64 2.806 1.187 4.373-2.825 1.282-3.278 1.27-4.247-.113zM537.93 486.414v9.377h-2.1c-7.015 0-13.992.075-21.006-.037-1.913-.038-1.95.9-1.95 2.325-.038 1.463.187 2.288 1.987 2.25 8.14-.074 16.242-.037 24.382-.037h2.063v8.515h-76.633v-8.477h28.62v-4.464h-24.869v-23.518h69.506v9.94h-50.338c-2.326 0-3.151 1.012-2.363 3.225.15.45 1.125.863 1.725.863 5.139.075 10.24.038 15.38.038zm33.571 25.506v-8.627h70.294c3.15 0 3.188 0 3.188 3.226v18.155h-53.414c-2.4 0-2.85.337-2.888 2.325-.038 1.763.487 2.176 2.85 2.176h53.302v9.265h-73.294V515.67h52.476c2.138 0 2.326-.262 2.213-2.363-.075-1.088-.563-1.388-1.538-1.388-1.988.038-4.013 0-6.001 0zm-133.31-52.738v10.99c-.712.037-1.35.075-2.025.075H412.91c-2.176 0-2.4.187-1.688 2.213a11.919 11.919 0 0 0 2.1 3.901c5.44 6.377 12.566 10.165 20.33 12.866 1.689.6 3.527.75 5.252 1.2.45.188.863.413 1.275.675-1.425 2.251-2.775 4.389-4.126 6.527-.375.563-.75 1.163-1.05 1.763-1.275 2.663-1.238 2.663-4.088 1.95-1.801-.45-3.639-.825-5.44-1.275-6.076-1.613-11.777-4.163-17.254-7.202-1.988-1.087-3.826-2.513-5.926-3.376-.938-.375-2.401-.037-3.451.413-4.952 2.176-9.753 4.876-14.817 6.752-4.876 1.8-10.052 2.813-15.116 4.088-.488.113-1.313-.037-1.613-.412-2.363-3.076-4.614-6.264-7.165-9.79 1.763-.45 3.039-.825 4.352-1.088 6.714-1.275 13.016-3.601 18.53-7.802a28.33 28.33 0 0 0 8.027-9.715c.787-1.5-.225-1.688-1.388-1.688h-25.62v-11.065zm273.897 44.861c6.114 0 12.266.188 18.38-.037 5.214-.188 9.902 1.388 13.503 4.801 4.276 4.089 6.902 9.227 5.74 15.567-1.239 6.826-5.215 11.365-11.629 13.766a13.1 13.1 0 0 1-4.35.75c-13.804.037-27.608.037-41.45 0-3.45-.038-6.488-1.538-9.564-3.15-3.789-2.026-5.964-5.215-7.352-8.966-.75-2.025-1.163-4.163-1.125-6.339.112-3.45 1.387-6.752 3.638-9.34 3.563-4.238 7.915-7.052 13.691-7.052zm.938 23.256c4.688 0 9.377.038 14.066 0 2.626-.037 4.351-1.425 5.139-4.088.637-2.1.075-4.839-1.65-5.702-1.726-.862-3.677-1.688-5.552-1.725-8.402-.188-16.842-.075-25.282-.075-3.488 0-6.001 2.4-6.039 5.701 0 3.451 2.438 5.89 6.002 5.927 4.426 0 8.89-.038 13.316-.038zm-451.393-23.406v-44.711h50.075v44.711zm34.471-22.543c0-3.113-.037-6.264 0-9.378 0-1.387-.525-2.063-1.988-2.063-4.801.038-9.602.038-14.441 0-1.425 0-1.988.638-1.988 2.063.037 6.114.037 12.229 0 18.343 0 1.5.525 2.138 2.063 2.138 4.764-.038 9.49-.038 14.254 0 1.538.037 2.138-.638 2.1-2.138-.037-3.001 0-5.964 0-8.965zm206.492 57.577c-7.202 0-14.367-.037-21.568 0-7.502.038-14.892-6.714-13.804-14.966.675-5.326 4.726-10.315 11.516-11.253a47.83 47.83 0 0 1 6.114-.413c12.678-.037 25.394-.037 38.072 0 4.126 0 8.027.863 11.178 3.789 3.413 3.188 4.876 7.127 4.126 11.74-.788 4.952-3.638 8.365-8.252 10.128-1.576.6-3.226.9-4.876.938-7.502.075-15.004.037-22.506.037zm.787-9.752c4.877 0 9.753.037 14.63 0 2.662 0 3.563-.9 3.525-3.376-.037-2.213-.9-3-3.488-3h-14.066c-5.402 0-10.803 0-16.205.037-.562 0-1.387.262-1.65.675-.525.863-1.238 2.025-1.05 2.888.337 1.688 1.613 2.776 3.488 2.776zm221.383-58.89h-27.382c-1.688 0-3.376.074-5.064 0-1.688-.076-2.4.562-2.363 2.288.075 3.488.075 7.014 0 10.502-.037 1.538.563 1.913 1.988 1.913 10.203-.037 20.368-.037 30.57-.037h2.289v10.353h-53.04v-35.41h53.002zm-363.695 46.512V506.03h79.333v10.766h-2.175c-8.815 0-17.63.037-26.444-.038-1.838-.037-2.514.45-2.476 2.4.112 6.377.037 12.717.037 19.243h-19.505v-2.963c0-5.439-.075-10.878.038-16.317.037-1.763-.413-2.4-2.288-2.363-8.065.075-16.13.038-24.194.038zm231.36-18.98c-5.026-.375-9.527-.6-13.653-2.889-4.689-2.588-7.464-6.414-9.227-11.44-2.738-7.802 3.038-17.255 9.077-20.105a29.808 29.808 0 0 1 11.628-2.851c4.576-.188 9.078.15 13.504 1.5 10.727 3.264 17.33 14.93 11.253 25.77-2.889 5.1-7.352 8.664-13.616 9.152-3.189.225-6.34.6-8.965.863zm10.128-18.268c-.037-5.214-4.5-9.152-9.002-9.19-5.589-.037-9.602 3.826-9.753 9.115-.112 4.239 5.064 8.853 9.678 8.778 4.614-.075 9.077-4.314 9.077-8.703zm-339.013 58.103v-23.706h18.68v9.715c0 2.513 0 2.513 2.438 2.513h52.213v11.478zm74.082-20.555h-16.992v-60.129h16.992zm423.485-33.684c-3.376 0-6.564.037-9.715-.038-1.425-.037-1.838.488-1.838 1.876.075 4.539.038 9.115.038 13.766h-17.892v-39.835h17.892c0 3.826.075 7.577-.038 11.29-.037 1.688.525 2.176 2.138 2.1 3.114-.112 6.227-.037 9.415-.037zm-134.847-24.269h18.942v41.036h-18.942zm-88.299.788v9.452h-69.58v-9.452z"/></svg>